<svg width="39" height="39" viewBox="0 0 39 39" fill="none" xmlns="http://www.w3.org/2000/svg">
<path d="M19.5 0C8.74855 0 0 8.74666 0 19.5C0 30.2533 8.74855 39 19.5 39C30.2515 39 39 30.2533 39 19.5C39 8.74666 30.2515 0 19.5 0ZM19.5 37.7011C9.46483 37.7011 1.30122 29.5358 1.30122 19.5C1.30122 9.4642 9.46483 1.29887 19.5 1.29887C29.5352 1.29887 37.6988 9.4642 37.6988 19.5C37.6988 29.5358 29.5352 37.7011 19.5 37.7011Z" fill="white"/>
<path d="M23.5039 10.0039H20.8359C17.4379 9.96995 17.0039 12.0729 17.0039 14.3489V16.0039H15.5039C15.4361 15.9949 15.3671 16.0016 15.3024 16.0235C15.2376 16.0454 15.1787 16.082 15.1303 16.1304C15.082 16.1787 15.0454 16.2376 15.0235 16.3024C15.0016 16.3672 14.9949 16.4361 15.0039 16.5039V19.5039C14.9949 19.5717 15.0016 19.6407 15.0235 19.7055C15.0454 19.7703 15.082 19.8292 15.1303 19.8775C15.1787 19.9259 15.2376 19.9625 15.3024 19.9844C15.3671 20.0063 15.4361 20.013 15.5039 20.0039H17.0039V27.5039C16.9956 27.5719 17.0029 27.6408 17.0253 27.7055C17.0476 27.7701 17.0845 27.8288 17.133 27.8771C17.1816 27.9253 17.2405 27.9618 17.3053 27.9838C17.3701 28.0058 17.439 28.0127 17.5069 28.0039H20.5619C20.8569 28.0379 21.0959 27.7989 21.0019 27.5039L21.0039 20.0039H23.5039C23.5717 20.013 23.6407 20.0063 23.7055 19.9844C23.7703 19.9625 23.8291 19.9259 23.8775 19.8775C23.9259 19.8292 23.9624 19.7703 23.9844 19.7055C24.0063 19.6407 24.013 19.5717 24.0039 19.5039V16.5039C24.013 16.4361 24.0063 16.3672 23.9844 16.3024C23.9624 16.2376 23.9259 16.1787 23.8775 16.1304C23.8291 16.082 23.7703 16.0454 23.7055 16.0235C23.6407 16.0016 23.5717 15.9949 23.5039 16.0039H21.0009L21.0039 14.5039C21.1009 13.8649 21.1009 13.9689 21.6939 14.0039H23.4829C23.6219 13.9729 23.7699 13.9899 23.8739 13.8889C23.9779 13.7879 24.0379 13.6499 24.0029 13.5039V10.5039C24.0121 10.4362 24.0056 10.3672 23.9838 10.3024C23.962 10.2376 23.9255 10.1788 23.8773 10.1304C23.829 10.082 23.7701 10.0454 23.7054 10.0235C23.6406 10.0015 23.5717 9.99485 23.5039 10.0039Z" fill="white"/>
</svg>
