<svg width="40" height="39" viewBox="0 0 40 39" fill="none" xmlns="http://www.w3.org/2000/svg">
<path fill-rule="evenodd" clip-rule="evenodd" d="M19.5 11C17.1919 11 16.9023 11.0098 15.9954 11.051C15.0905 11.0922 14.4726 11.236 13.9318 11.4459C13.3648 11.6595 12.8511 11.9942 12.4267 12.4267C11.9941 12.8513 11.6594 13.3652 11.4459 13.9325C11.236 14.4726 11.0928 15.0905 11.051 15.9954C11.0098 16.9023 11 17.1919 11 19.5C11 21.8081 11.0098 22.0977 11.051 23.0046C11.0922 23.9095 11.236 24.5274 11.4459 25.0675C11.6637 25.6265 11.954 26.1006 12.4267 26.5733C12.8511 27.0058 13.3648 27.3405 13.9318 27.5541C14.4726 27.7633 15.0905 27.9072 15.9954 27.949C16.9023 27.9902 17.1919 28 19.5 28C21.8081 28 22.0977 27.9902 23.0046 27.949C23.9095 27.9078 24.5274 27.764 25.0675 27.5541C25.6348 27.3406 26.1487 27.0059 26.5733 26.5733C27.0059 26.1487 27.3406 25.6348 27.5541 25.0675C27.7633 24.5274 27.9072 23.9095 27.949 23.0046C27.9902 22.0977 28 21.8081 28 19.5C28 17.1919 27.9902 16.9023 27.949 15.9954C27.9078 15.0905 27.764 14.4726 27.5534 13.9325C27.3401 13.3653 27.0056 12.8514 26.5733 12.4267C26.1487 11.9941 25.6348 11.6594 25.0675 11.4459C24.5274 11.2367 23.9095 11.0928 23.0046 11.051C22.0977 11.0098 21.8081 11 19.5 11ZM19.5 12.5313C21.7695 12.5313 22.0382 12.5405 22.9347 12.581C23.7631 12.6189 24.2136 12.7575 24.513 12.8739C24.9099 13.0282 25.193 13.212 25.4905 13.5095C25.788 13.807 25.9718 14.0901 26.1261 14.487C26.2425 14.7864 26.3811 15.2363 26.419 16.0653C26.4595 16.9611 26.4687 17.2305 26.4687 19.5C26.4687 21.7695 26.4595 22.0382 26.419 22.9347C26.3811 23.7637 26.2425 24.2136 26.1261 24.513C25.9899 24.8823 25.7728 25.2163 25.4905 25.4905C25.2163 25.7728 24.8823 25.9899 24.513 26.1261C24.2136 26.2425 23.7631 26.3811 22.9347 26.419C22.0389 26.4595 21.7695 26.4687 19.5 26.4687C17.2305 26.4687 16.9611 26.4595 16.0653 26.419C15.2363 26.3811 14.7864 26.2425 14.487 26.1261C14.1177 25.9899 13.7837 25.7728 13.5095 25.4905C13.2273 25.2162 13.0101 24.8822 12.8739 24.513C12.7575 24.2136 12.6189 23.7637 12.581 22.9347C12.5405 22.0389 12.5313 21.7695 12.5313 19.5C12.5313 17.2305 12.5405 16.9618 12.581 16.0653C12.6189 15.2363 12.7575 14.7864 12.8739 14.487C13.0282 14.0901 13.212 13.807 13.5095 13.5095C13.7837 13.2272 14.1177 13.0101 14.487 12.8739C14.7864 12.7575 15.2363 12.6189 16.0653 12.581C16.9611 12.5405 17.2305 12.5313 19.5 12.5313" fill="white"/>
<path fill-rule="evenodd" clip-rule="evenodd" d="M19.5 14.9231C18.2861 14.9231 17.122 15.4053 16.2636 16.2636C15.4053 17.122 14.9231 18.2861 14.9231 19.5C14.9231 20.7139 15.4053 21.878 16.2636 22.7364C17.122 23.5947 18.2861 24.0769 19.5 24.0769C20.7139 24.0769 21.8781 23.5947 22.7364 22.7364C23.5947 21.878 24.0769 20.7139 24.0769 19.5C24.0769 18.2861 23.5947 17.122 22.7364 16.2636C21.8781 15.4053 20.7139 14.9231 19.5 14.9231ZM19.5 22.4423C18.7197 22.4423 17.9713 22.1323 17.4195 21.5805C16.8677 21.0287 16.5577 20.2804 16.5577 19.5C16.5577 18.7197 16.8677 17.9713 17.4195 17.4195C17.9713 16.8677 18.7197 16.5577 19.5 16.5577C20.2804 16.5577 21.0288 16.8677 21.5805 17.4195C22.1323 17.9713 22.4423 18.7197 22.4423 19.5C22.4423 20.2804 22.1323 21.0287 21.5805 21.5805C21.0288 22.1323 20.2804 22.4423 19.5 22.4423ZM25.1885 14.9885C25.1885 15.1259 25.1614 15.2619 25.1088 15.3888C25.0563 15.5157 24.9792 15.6311 24.8821 15.7282C24.7849 15.8254 24.6696 15.9024 24.5427 15.955C24.4157 16.0076 24.2797 16.0346 24.1423 16.0346C24.0049 16.0346 23.8689 16.0076 23.742 15.955C23.6151 15.9024 23.4997 15.8254 23.4026 15.7282C23.3054 15.6311 23.2284 15.5157 23.1758 15.3888C23.1232 15.2619 23.0962 15.1259 23.0962 14.9885C23.0962 14.711 23.2064 14.4449 23.4026 14.2487C23.5988 14.0525 23.8649 13.9423 24.1423 13.9423C24.4198 13.9423 24.6859 14.0525 24.8821 14.2487C25.0783 14.4449 25.1885 14.711 25.1885 14.9885Z" fill="white"/>
<path d="M19.5012 0C8.7491 0 0 8.74666 0 19.5C0 30.2533 8.7491 39 19.5012 39C30.2533 39 39.0024 30.2533 39.0024 19.5C39.0024 8.74666 30.2533 0 19.5012 0ZM19.5012 37.7011C9.46542 37.7011 1.3013 29.5358 1.3013 19.5C1.3013 9.4642 9.46542 1.29887 19.5012 1.29887C29.537 1.29887 37.7011 9.4642 37.7011 19.5C37.7011 29.5358 29.537 37.7011 19.5012 37.7011Z" fill="white"/>
</svg>
