<svg width="40" height="39" viewBox="0 0 40 39" fill="none" xmlns="http://www.w3.org/2000/svg">
<path d="M19.5012 0C8.7491 0 0 8.74666 0 19.5C0 30.2533 8.7491 39 19.5012 39C30.2533 39 39.0024 30.2533 39.0024 19.5C39.0024 8.74666 30.2533 0 19.5012 0ZM19.5012 37.7011C9.46542 37.7011 1.3013 29.5358 1.3013 19.5C1.3013 9.4642 9.46542 1.29887 19.5012 1.29887C29.537 1.29887 37.7011 9.4642 37.7011 19.5C37.7011 29.5358 29.537 37.7011 19.5012 37.7011Z" fill="white"/>
<path d="M27.3279 13.58C27.4388 13.3747 27.5302 13.1594 27.6009 12.937C27.6336 12.8338 27.6343 12.7232 27.6028 12.6196C27.5713 12.5161 27.5091 12.4245 27.4245 12.357C27.3399 12.2895 27.2368 12.2493 27.1289 12.2416C27.0209 12.2339 26.9132 12.2592 26.8199 12.314C26.3075 12.6184 25.7528 12.8452 25.1739 12.987C24.4711 12.3528 23.5585 12.0012 22.6119 12C22.0976 12.0004 21.5887 12.1046 21.1157 12.3065C20.6426 12.5083 20.2152 12.8036 19.8591 13.1746C19.5029 13.5456 19.2254 13.9847 19.043 14.4655C18.8607 14.9464 18.7773 15.4591 18.7979 15.973C16.5489 15.6899 14.4952 14.5518 13.0629 12.795C13.008 12.7284 12.9379 12.6761 12.8584 12.6425C12.779 12.6088 12.6926 12.5948 12.6066 12.6017C12.5206 12.6086 12.4376 12.6361 12.3645 12.6819C12.2914 12.7278 12.2305 12.7906 12.1869 12.865C11.8589 13.4279 11.6806 14.0655 11.6691 14.7169C11.6575 15.3683 11.8131 16.0118 12.1209 16.586C12.0454 16.5987 11.9729 16.6252 11.9069 16.664C11.826 16.7156 11.7595 16.7866 11.7133 16.8707C11.6672 16.9548 11.643 17.0491 11.6429 17.145C11.6429 18.28 12.1479 19.322 12.9619 20.03L12.9269 20.065C12.8654 20.1345 12.8231 20.2188 12.8042 20.3097C12.7853 20.4005 12.7903 20.4947 12.8189 20.583C12.9886 21.1125 13.272 21.5986 13.6493 22.0071C14.0265 22.4156 14.4885 22.7367 15.0029 22.948C13.9465 23.4633 12.7642 23.6643 11.5969 23.527C11.4769 23.5148 11.3562 23.5427 11.2538 23.6064C11.1514 23.6701 11.073 23.766 11.0309 23.879C10.9905 23.9929 10.9897 24.1171 11.0287 24.2314C11.0678 24.3458 11.1443 24.4436 11.2459 24.509C12.8329 25.5276 14.6791 26.0687 16.5649 26.068C22.7449 26.068 26.4389 21.048 26.4389 16.195L26.4379 16.031C27.0368 15.5634 27.5571 15.003 27.9789 14.371C28.0428 14.2755 28.0742 14.1619 28.0685 14.0471C28.0628 13.9323 28.0202 13.8224 27.9472 13.7337C27.8742 13.6449 27.7745 13.5821 27.663 13.5544C27.5514 13.5267 27.4339 13.5357 27.3279 13.58Z" fill="white"/>
</svg>
